<?xml version="1.0" encoding="UTF-8"?>
<!DOCTYPE svg PUBLIC "-//W3C//DTD SVG 1.1//EN" "http://www.w3.org/Graphics/SVG/1.1/DTD/svg11.dtd">
<!-- Creator: CorelDRAW X6 -->
<svg xmlns="http://www.w3.org/2000/svg" xml:space="preserve" width="7.95276in" height="7.32283in" version="1.1" style="shape-rendering:geometricPrecision; text-rendering:geometricPrecision; image-rendering:optimizeQuality; fill-rule:evenodd; clip-rule:evenodd" viewBox="0 0 7953 7323" xmlns:xlink="http://www.w3.org/1999/xlink">
 <defs>
  <style type="text/css">
   <![CDATA[
    .str1 {stroke:#F1FDF5;stroke-width:28.2638}
    .str2 {stroke:#F1FDF5;stroke-width:35.3346}
    .str0 {stroke:#F1FDF5;stroke-width:42.3898}
    .fil1 {fill:none;fill-rule:nonzero}
    .fil0 {fill:#3E4F9F;fill-rule:nonzero}
    .fil3 {fill:#939598;fill-rule:nonzero}
    .fil2 {fill:#FEFEFE;fill-rule:nonzero}
   ]]>
  </style>
 </defs>
 <g id="Layer_x0020_1">
  <metadata id="CorelCorpID_0Corel-Layer"/>
  <g id="_628277296">
   <polygon class="fil0" points="58,6451 4004,31 7905,6438 "/>
   <polyline class="fil1 str0" points="3184,5250 2959,5162 2900,5251 "/>
   <polyline class="fil1 str0" points="3439,5250 2959,5061 2834,5251 "/>
   <polyline class="fil1 str0" points="3694,5250 2959,4960 2768,5251 "/>
   <polyline class="fil1 str0" points="3809,5194 2959,4859 2738,5196 "/>
   <polyline class="fil1 str0" points="3809,5093 2958,4759 2738,5095 "/>
   <polyline class="fil1 str0" points="3808,4992 2958,4658 2737,4994 "/>
   <polyline class="fil1 str0" points="3808,4892 2958,4557 2737,4893 "/>
   <polyline class="fil1 str0" points="3808,4791 2958,4456 2737,4792 "/>
   <polyline class="fil1 str0" points="3808,4690 2958,4355 2737,4692 "/>
   <polyline class="fil1 str0" points="3808,4589 2958,4255 2737,4591 "/>
   <polyline class="fil1 str0" points="3808,4488 2958,4154 2737,4490 "/>
   <polyline class="fil1 str0" points="3808,4388 2957,4053 2737,4389 "/>
   <polyline class="fil1 str0" points="3808,4287 2957,3952 2736,4289 "/>
   <polyline class="fil1 str0" points="3807,4186 2957,3851 2736,4188 "/>
   <polyline class="fil1 str0" points="3807,4085 2957,3751 2736,4087 "/>
   <polyline class="fil1 str0" points="3807,3984 2957,3650 2736,3986 "/>
   <polyline class="fil1 str0" points="3807,3884 2957,3549 2736,3885 "/>
   <polyline class="fil1 str0" points="3807,3783 2957,3448 2736,3784 "/>
   <polyline class="fil1 str0" points="3807,3682 2957,3347 2736,3684 "/>
   <polyline class="fil1 str0" points="3807,3581 2956,3247 2735,3583 "/>
   <polyline class="fil1 str0" points="3806,3480 2956,3146 2735,3482 "/>
   <polyline class="fil1 str0" points="3806,3380 2956,3045 2735,3381 "/>
   <polyline class="fil1 str0" points="3806,3279 2956,2944 2735,3280 "/>
   <polyline class="fil1 str0" points="3806,3178 2956,2843 2735,3180 "/>
   <polyline class="fil1 str0" points="3806,3081 2956,2746 2735,3082 "/>
   <polyline class="fil1 str0" points="3806,2983 2956,2649 2735,2985 "/>
   <polyline class="fil1 str0" points="3806,2875 2956,2541 2735,2877 "/>
   <polyline class="fil1 str1" points="2252,5252 2182,5216 2157,5252 "/>
   <polyline class="fil1 str1" points="2446,5252 2182,5115 2085,5252 "/>
   <polyline class="fil1 str1" points="2641,5251 2182,5014 2014,5252 "/>
   <polyline class="fil1 str1" points="2728,5196 2182,4913 1947,5253 "/>
   <polyline class="fil1 str1" points="2728,5095 2182,4813 1869,5253 "/>
   <polyline class="fil1 str1" points="2728,4994 2182,4712 1798,5253 "/>
   <polyline class="fil1 str1" points="2727,4893 2181,4611 1733,5253 "/>
   <polyline class="fil1 str1" points="2727,4792 2181,4510 1666,5253 "/>
   <polyline class="fil1 str1" points="2727,4692 2181,4409 1603,5253 "/>
   <polyline class="fil1 str1" points="2727,4591 2181,4309 1540,5253 "/>
   <polyline class="fil1 str1" points="2727,4490 2181,4208 1469,5253 "/>
   <polyline class="fil1 str1" points="2727,4389 2181,4107 1388,5253 "/>
   <polyline class="fil1 str1" points="2727,4289 2181,4006 1310,5254 "/>
   <polyline class="fil1 str1" points="2726,4188 2181,3906 1704,4563 "/>
   <polyline class="fil1 str1" points="2726,4087 2180,3805 1984,4083 "/>
   <polyline class="fil1 str2" points="4053,5249 4005,5224 3988,5249 "/>
   <polyline class="fil1 str2" points="4247,5249 4005,5124 3916,5249 "/>
   <polyline class="fil1 str2" points="4441,5248 4005,5023 3844,5249 "/>
   <polyline class="fil1 str2" points="4551,5204 4005,4922 3814,5192 "/>
   <polyline class="fil1 str2" points="4551,5103 4005,4821 3814,5091 "/>
   <polyline class="fil1 str2" points="4551,5003 4005,4720 3813,4990 "/>
   <polyline class="fil1 str2" points="4551,4902 4005,4620 3813,4889 "/>
   <polyline class="fil1 str2" points="4551,4801 4005,4519 3813,4788 "/>
   <polyline class="fil1 str2" points="4550,4700 4004,4418 3813,4688 "/>
   <polyline class="fil1 str2" points="4550,4599 4004,4317 3813,4587 "/>
   <polyline class="fil1 str2" points="4550,4499 4004,4216 3813,4486 "/>
   <polyline class="fil1 str2" points="4550,4398 4004,4116 3813,4385 "/>
   <polyline class="fil1 str2" points="4550,4297 4004,4015 3812,4284 "/>
   <polyline class="fil1 str2" points="4550,4196 4004,3914 3812,4184 "/>
   <polyline class="fil1 str2" points="4550,4095 4004,3813 3812,4083 "/>
   <polyline class="fil1 str2" points="4549,3999 4004,3717 3812,3987 "/>
   <polyline class="fil1 str2" points="4549,3899 4003,3616 3812,3886 "/>
   <polyline class="fil1 str2" points="4549,3798 4003,3516 3812,3785 "/>
   <polyline class="fil1 str2" points="4549,3679 4003,3397 3812,3666 "/>
   <polyline class="fil1 str2" points="4549,3560 4003,3278 3812,3547 "/>
   <polyline class="fil1 str2" points="4549,3441 4003,3159 3812,3428 "/>
   <polyline class="fil1 str2" points="4549,3322 4003,3040 3812,3310 "/>
   <polyline class="fil1 str2" points="4549,3203 4003,2921 3812,3191 "/>
   <polyline class="fil1 str2" points="4549,3084 4003,2802 3812,3072 "/>
   <polyline class="fil1 str2" points="4549,2966 4003,2683 3812,2953 "/>
   <polyline class="fil1 str2" points="4549,2847 4003,2565 3812,2834 "/>
   <polyline class="fil1 str2" points="4549,2728 4003,2446 3812,2715 "/>
   <polyline class="fil1 str2" points="4549,2609 4003,2327 3812,2596 "/>
   <polyline class="fil1 str2" points="4549,2490 4003,2208 3812,2477 "/>
   <polyline class="fil1 str2" points="4549,2371 4003,2089 3812,2358 "/>
   <polyline class="fil1 str2" points="4549,2252 4003,1970 3812,2240 "/>
   <polyline class="fil1 str2" points="4549,2133 4003,1851 3812,2121 "/>
   <polyline class="fil1 str2" points="4549,2014 4003,1732 3812,2002 "/>
   <polyline class="fil1 str2" points="4549,1896 4003,1613 3812,1883 "/>
   <polyline class="fil1 str2" points="4549,1777 4003,1494 3812,1764 "/>
   <polyline class="fil1 str2" points="4499,1632 4003,1376 3812,1645 "/>
   <polyline class="fil1 str2" points="4405,1465 4003,1257 3812,1526 "/>
   <polyline class="fil1 str2" points="4311,1297 4003,1138 3812,1407 "/>
   <polyline class="fil1 str0" points="6388,5245 5574,4919 5358,5247 "/>
   <polyline class="fil1 str0" points="6157,5245 5574,5016 5422,5247 "/>
   <polyline class="fil1 str0" points="5911,5246 5574,5113 5486,5247 "/>
   <polyline class="fil1 str0" points="5719,5246 5574,5189 5536,5246 "/>
   <polyline class="fil1 str0" points="6615,5228 5574,4818 5353,5154 "/>
   <polyline class="fil1 str0" points="6535,5090 5574,4717 5353,5053 "/>
   <polyline class="fil1 str0" points="6462,4966 5573,4616 5352,4952 "/>
   <polyline class="fil1 str0" points="6386,4835 5573,4515 5352,4852 "/>
   <polyline class="fil1 str0" points="6310,4705 5573,4415 5352,4751 "/>
   <polyline class="fil1 str0" points="6234,4574 5573,4314 5352,4650 "/>
   <polyline class="fil1 str0" points="6158,4443 5573,4213 5352,4549 "/>
   <polyline class="fil1 str0" points="6082,4313 5573,4112 5352,4449 "/>
   <polyline class="fil1 str0" points="6006,4182 5573,4011 5352,4348 "/>
   <polyline class="fil1 str0" points="5930,4051 5572,3911 5352,4247 "/>
   <polyline class="fil1 str0" points="5854,3921 5572,3810 5351,4146 "/>
   <polyline class="fil1 str0" points="5778,3790 5572,3709 5351,4045 "/>
   <polyline class="fil1 str0" points="5703,3660 5572,3608 5351,3945 "/>
   <polyline class="fil1 str0" points="5627,3529 5572,3508 5351,3844 "/>
   <line class="fil1 str0" x1="5563" y1="3420" x2="5351" y2="3743"/>
   <line class="fil1 str0" x1="5532" y1="3366" x2="5351" y2="3642"/>
   <line class="fil1 str0" x1="5501" y1="3313" x2="5351" y2="3541"/>
   <line class="fil1 str0" x1="5470" y1="3259" x2="5350" y2="3440"/>
   <line class="fil1 str0" x1="5438" y1="3206" x2="5350" y2="3340"/>
   <line class="fil1 str0" x1="5407" y1="3152" x2="5350" y2="3239"/>
   <line class="fil1 str0" x1="5376" y1="3098" x2="5350" y2="3138"/>
   <polyline class="fil1 str1" points="5327,5247 4797,4973 4603,5248 "/>
   <polyline class="fil1 str1" points="5161,5247 4797,5059 4664,5248 "/>
   <polyline class="fil1 str1" points="4994,5247 4797,5146 4725,5248 "/>
   <polyline class="fil1 str1" points="4827,5248 4797,5232 4786,5248 "/>
   <polyline class="fil1 str1" points="5343,5154 4797,4872 4576,5185 "/>
   <polyline class="fil1 str1" points="5343,5053 4797,4771 4576,5084 "/>
   <polyline class="fil1 str1" points="5343,4952 4797,4670 4576,4983 "/>
   <polyline class="fil1 str1" points="5342,4852 4797,4569 4576,4882 "/>
   <polyline class="fil1 str1" points="5342,4751 4796,4469 4576,4781 "/>
   <polyline class="fil1 str1" points="5342,4650 4796,4368 4575,4681 "/>
   <polyline class="fil1 str1" points="5342,4549 4796,4267 4575,4580 "/>
   <polyline class="fil1 str1" points="5342,4449 4796,4166 4575,4479 "/>
   <polyline class="fil1 str1" points="5342,4348 4796,4065 4575,4378 "/>
   <polyline class="fil1 str1" points="5342,4247 4796,3965 4575,4277 "/>
   <polyline class="fil1 str1" points="5342,4146 4796,3864 4575,4177 "/>
   <polyline class="fil1 str1" points="5341,4045 4796,3763 4575,4076 "/>
   <polyline class="fil1 str1" points="5341,3945 4795,3662 4574,3975 "/>
   <polyline class="fil1 str1" points="5341,3844 4795,3562 4574,3874 "/>
   <polyline class="fil1 str1" points="5341,3714 4795,3432 4574,3745 "/>
   <polyline class="fil1 str1" points="5341,3584 4795,3302 4574,3615 "/>
   <polyline class="fil1 str1" points="5341,3455 4795,3172 4574,3485 "/>
   <polyline class="fil1 str1" points="5341,3325 4795,3043 4574,3355 "/>
   <polyline class="fil1 str1" points="5341,3195 4795,2913 4574,3226 "/>
   <polyline class="fil1 str1" points="5341,3066 4795,2783 4574,3096 "/>
   <polyline class="fil1 str1" points="5256,2892 4795,2654 4574,2966 "/>
   <path class="fil2" d="M1626 5530l-243 0 0 342 243 0 0 -342zm0 342zm96 382l-96 0 0 -325 -243 0 0 325 -96 0 0 -743c0,-7 5,-15 14,-24 9,-9 20,-13 32,-13l338 0c35,0 52,10 52,30l0 750z"/>
   <path class="fil2" d="M2368 6152l0 -569c0,-14 -8,-26 -25,-38 -12,-10 -21,-15 -27,-15l-146 0 0 667 128 0c47,0 70,-15 70,-45zm96 7c0,23 -14,44 -43,64 -29,20 -55,30 -79,30l-268 0 0 -780 279 0c16,0 36,8 61,23 34,20 51,46 51,76l0 586z"/>
   <polygon class="fil2" points="3178,5473 3006,6254 2946,6254 2768,5473 2862,5473 2983,6005 3080,5473 "/>
   <path class="fil2" d="M3822 5530l-243 0 0 342 243 0 0 -342zm0 342zm96 382l-96 0 0 -325 -243 0 0 325 -96 0 0 -743c0,-7 5,-15 14,-24 9,-9 20,-13 32,-13l338 0c35,0 52,10 52,30l0 750z"/>
   <polygon class="fil2" points="4367,6254 4270,6254 4270,5473 4367,5473 "/>
   <polygon class="fil2" points="5119,5530 4960,5530 4960,6254 4864,6254 4864,5530 4706,5530 4706,5473 5119,5473 "/>
   <polygon class="fil2" points="5861,6254 5765,6254 5765,5878 5547,5878 5547,6254 5451,6254 5451,5473 5547,5473 5547,5821 5765,5821 5765,5473 5861,5473 "/>
   <path class="fil2" d="M6552 5530l-243 0 0 342 243 0 0 -342zm0 342zm96 382l-96 0 0 -325 -243 0 0 325 -96 0 0 -743c0,-7 5,-15 14,-24 9,-9 20,-13 32,-13l338 0c35,0 52,10 52,30l0 750z"/>
   <path class="fil3" d="M282 6841c-8,-5 -18,-10 -30,-15 -12,-4 -26,-8 -40,-10 -14,-2 -28,-3 -43,-2 -14,1 -27,4 -39,9 -11,5 -21,13 -28,24 -7,10 -11,24 -11,41l0 143c0,16 4,29 11,39 8,10 17,18 30,24 12,6 26,10 41,12 15,2 31,3 47,3 12,0 23,0 33,-1 10,0 19,-1 28,-2l0 -266zm45 -215l0 288 0 226c-18,2 -37,4 -58,5 -21,1 -41,2 -60,2 -21,0 -40,-1 -58,-4 -18,-3 -33,-7 -46,-14 -19,-11 -33,-24 -43,-41 -10,-17 -15,-38 -15,-65l0 -134c1,-36 12,-65 32,-85 21,-21 50,-31 89,-31 23,0 44,2 63,7 19,5 36,10 52,16l3 -172 42 0z"/>
   <path class="fil3" d="M793 6819c-7,-3 -14,-4 -20,-5 -6,-1 -11,-1 -15,-1 -11,0 -22,2 -33,5 -11,3 -21,8 -30,14 -9,6 -16,13 -21,20 -5,7 -8,16 -8,24l0 264 -47 0 0 -365 40 0 2 27c14,-10 30,-17 47,-23 17,-5 33,-8 47,-8 10,0 18,1 26,2 8,1 15,3 24,5l-12 41z"/>
   <path class="fil3" d="M1284 6889c0,-16 -3,-29 -10,-39 -6,-10 -14,-18 -23,-23 -9,-6 -18,-9 -27,-11 -10,-2 -18,-3 -24,-3 -10,0 -20,1 -30,3 -10,2 -20,6 -28,11 -9,6 -16,13 -21,23 -6,10 -8,23 -8,38l0 71 172 -12 0 -58zm4 -93c17,13 28,28 34,44 5,16 8,34 8,54l0 93 -218 16 0 37c0,23 7,39 22,50 15,10 33,15 55,15 16,0 32,-2 50,-7 18,-5 36,-12 55,-22 4,7 7,13 10,18 3,5 6,11 9,18 -19,12 -40,21 -62,27 -22,6 -44,9 -65,9 -37,0 -65,-9 -87,-26 -21,-17 -32,-44 -33,-82l0 -151c0,-36 11,-65 33,-86 22,-21 52,-32 90,-32 19,0 37,2 56,7 18,5 33,11 43,19z"/>
   <path class="fil3" d="M1751 6896c-7,-1 -15,-1 -26,0 -10,0 -20,3 -30,7 -9,4 -18,12 -24,22 -7,10 -10,25 -10,45l0 63c0,16 4,29 11,39 8,10 17,18 29,24 12,6 26,10 41,12 16,2 31,3 47,3 12,0 23,0 33,-1 10,0 19,-1 28,-2l0 -182c-13,-7 -29,-13 -49,-19 -19,-6 -36,-9 -52,-10l-1 0zm4 -123c30,2 54,8 74,16 19,9 35,20 48,35 9,14 14,27 16,40 2,13 3,29 3,49l0 226c-18,2 -37,4 -58,5 -21,1 -41,2 -60,2 -21,0 -40,-1 -58,-4 -18,-3 -33,-7 -46,-14 -19,-11 -34,-24 -44,-41 -10,-17 -15,-38 -15,-65l0 -57c0,-30 6,-54 18,-70 12,-17 28,-29 47,-37 8,-3 17,-5 26,-7 9,-2 18,-3 27,-3 10,0 20,1 31,3 11,2 21,4 32,7 10,3 21,6 30,9 10,3 19,6 26,9 -1,-8 -3,-15 -7,-23 -4,-7 -10,-14 -18,-20 -8,-6 -19,-11 -31,-15 -13,-4 -29,-7 -47,-10l7 -39z"/>
   <path class="fil3" d="M2638 7140l-46 0 0 -254c0,-17 -3,-30 -10,-39 -6,-10 -14,-17 -23,-22 -9,-5 -18,-8 -28,-9 -10,-1 -18,-2 -24,-2 -10,1 -21,4 -33,8 -12,4 -24,8 -37,13 5,14 7,31 7,51l0 254 -47 0 0 -254c0,-18 -2,-32 -7,-42 -5,-10 -11,-17 -19,-21 -8,-4 -16,-7 -25,-8 -9,-1 -18,-1 -26,-1 -15,1 -29,4 -42,9 -13,5 -26,12 -41,20l0 -1c-2,1 -5,3 -9,5 0,39 0,77 0,114 0,37 0,70 0,99l0 80 -46 0 0 -365 41 0 1 33c17,-9 34,-18 53,-25 19,-8 38,-11 57,-11 13,0 26,2 39,6 14,4 26,11 37,21 16,-7 32,-13 51,-19 18,-6 37,-8 57,-8 36,0 64,11 85,31 20,21 31,49 33,83l0 254z"/>
   <path class="fil3" d="M3051 6937c27,6 49,13 66,20 17,7 31,16 41,25 10,9 17,19 21,30 4,11 6,22 6,34 0,14 -2,27 -7,39 -4,12 -12,23 -22,32 -10,9 -23,17 -39,22 -16,6 -37,8 -61,8 -24,0 -44,-3 -61,-9 -17,-6 -31,-14 -41,-23 -11,-10 -19,-21 -24,-34 -5,-13 -8,-27 -9,-41l44 0c1,12 5,22 10,31 5,9 12,15 21,20 9,5 18,9 28,11 10,2 21,3 32,3 9,0 18,-1 28,-3 10,-2 19,-5 27,-10 8,-5 15,-11 20,-18 5,-7 8,-17 8,-28 0,-10 -2,-19 -7,-26 -4,-7 -11,-13 -19,-18 -9,-5 -19,-9 -31,-12 -12,-3 -26,-7 -42,-11 -22,-5 -40,-12 -55,-20 -15,-8 -26,-16 -35,-26 -9,-9 -14,-19 -18,-30 -3,-11 -5,-22 -5,-33 0,-12 2,-24 6,-36 4,-12 11,-23 21,-33 10,-10 23,-18 39,-24 16,-6 36,-9 61,-9 26,0 46,3 60,8 14,5 23,9 27,11 -2,7 -5,13 -8,18 -3,5 -6,11 -8,18 -8,-2 -16,-4 -23,-6 -7,-1 -14,-3 -22,-4 -8,-1 -16,-2 -24,-2 -11,0 -21,1 -31,4 -10,3 -18,7 -26,11 -8,5 -14,11 -18,18 -4,7 -7,15 -7,24 0,21 7,36 20,44 13,9 32,16 58,22z"/>
   <path class="fil3" d="M3969 6820l0 222c0,34 16,57 49,71 -2,7 -4,13 -6,19 -2,6 -4,12 -6,18 -26,-5 -46,-17 -61,-36 -15,-19 -22,-44 -21,-76l0 -171c0,-26 0,-55 0,-86 0,-31 1,-61 1,-91 0,-12 0,-23 0,-34 0,-11 0,-21 0,-31l44 0 0 149 90 0 0 45 -90 0z"/>
   <path class="fil3" d="M4533 6910c0,-18 -3,-33 -8,-46 -5,-12 -12,-23 -20,-30 -9,-8 -18,-13 -29,-17 -11,-3 -21,-5 -32,-5 -11,0 -22,2 -33,5 -11,3 -20,9 -29,17 -9,8 -16,18 -21,30 -5,12 -8,28 -8,46l0 106c0,32 9,54 26,68 17,13 39,20 65,20 13,0 25,-1 36,-4 11,-3 20,-8 28,-14 8,-7 14,-15 19,-27 4,-11 7,-25 7,-42l0 -106zm47 99c0,44 -10,78 -31,102 -21,24 -56,35 -104,35 -47,0 -81,-12 -104,-37 -23,-25 -34,-58 -34,-100l0 -92c0,-40 7,-70 20,-91 14,-20 30,-35 50,-44 9,-4 19,-7 30,-9 10,-2 23,-3 38,-3 13,0 25,1 36,3 11,2 22,5 31,9 10,4 19,10 27,17 9,7 16,16 22,27 6,11 11,23 14,38 3,15 5,32 5,52l0 92z"/>
   <path class="fil3" d="M5488 6819c-7,-3 -14,-4 -20,-5 -6,-1 -11,-1 -15,-1 -11,0 -22,2 -33,5 -11,3 -21,8 -30,14 -9,6 -16,13 -21,20 -5,7 -8,16 -8,24l0 264 -47 0 0 -365 40 0 2 27c14,-10 30,-17 47,-23 17,-5 33,-8 47,-8 10,0 18,1 26,2 8,1 15,3 24,5l-12 41z"/>
   <path class="fil3" d="M5979 6889c0,-16 -3,-29 -10,-39 -6,-10 -14,-18 -23,-23 -9,-6 -18,-9 -27,-11 -10,-2 -18,-3 -24,-3 -10,0 -20,1 -30,3 -10,2 -20,6 -28,11 -9,6 -16,13 -21,23 -6,10 -8,23 -8,38l0 71 172 -12 0 -58zm4 -93c17,13 28,28 34,44 5,16 8,34 8,54l0 93 -218 16 0 37c0,23 7,39 22,50 15,10 33,15 55,15 16,0 32,-2 50,-7 18,-5 36,-12 55,-22 4,7 7,13 10,18 3,5 6,11 9,18 -19,12 -40,21 -62,27 -22,6 -44,9 -65,9 -37,0 -65,-9 -87,-26 -21,-17 -32,-44 -33,-82l0 -151c0,-36 11,-65 33,-86 22,-21 52,-32 90,-32 19,0 37,2 56,7 18,5 33,11 43,19z"/>
   <path class="fil3" d="M6446 6896c-7,-1 -15,-1 -26,0 -10,0 -20,3 -30,7 -9,4 -18,12 -24,22 -7,10 -10,25 -10,45l0 63c0,16 4,29 11,39 8,10 17,18 29,24 12,6 26,10 41,12 16,2 31,3 47,3 12,0 23,0 33,-1 10,0 19,-1 28,-2l0 -182c-13,-7 -29,-13 -49,-19 -19,-6 -36,-9 -52,-10l-1 0zm4 -123c30,2 54,8 74,16 19,9 35,20 48,35 9,14 14,27 16,40 2,13 3,29 3,49l0 226c-18,2 -37,4 -58,5 -21,1 -41,2 -60,2 -21,0 -40,-1 -58,-4 -18,-3 -33,-7 -46,-14 -19,-11 -34,-24 -44,-41 -10,-17 -15,-38 -15,-65l0 -57c0,-30 6,-54 18,-70 12,-17 28,-29 47,-37 8,-3 17,-5 26,-7 9,-2 18,-3 27,-3 10,0 20,1 31,3 11,2 21,4 32,7 10,3 21,6 30,9 10,3 19,6 26,9 -1,-8 -3,-15 -7,-23 -4,-7 -10,-14 -18,-20 -8,-6 -18,-11 -31,-15 -13,-4 -29,-7 -47,-10l7 -39z"/>
   <polygon class="fil3" points="6888,6626 6934,6626 6934,7140 6888,7140 "/>
   <path class="fil3" d="M7266 6820l0 222c0,34 16,57 49,71 -2,7 -4,13 -6,19 -2,6 -4,12 -6,18 -26,-5 -46,-17 -61,-36 -15,-19 -22,-44 -21,-76l0 -171c0,-26 0,-55 0,-86 0,-31 1,-61 1,-91 0,-12 0,-23 0,-34 0,-11 0,-21 0,-31l44 0 0 149 90 0 0 45 -90 0z"/>
   <path class="fil3" d="M7851 6838c0,-10 2,-19 6,-28 4,-9 9,-16 18,-23 8,-7 20,-13 35,-19 0,1 1,3 2,6 1,4 3,8 5,12l7 18c-11,4 -18,10 -23,19 -4,9 -7,18 -7,28l1 334c0,29 -7,52 -20,70 -13,17 -34,31 -64,40 0,-2 -1,-6 -3,-10 -2,-4 -4,-8 -5,-13 -2,-5 -4,-11 -7,-16 17,-7 30,-16 40,-28 9,-12 14,-26 14,-43 0,-10 0,-19 0,-27 0,-8 0,-15 0,-20l0 -18c-14,10 -29,17 -47,21 -18,4 -34,7 -48,7 -43,0 -76,-12 -100,-35 -24,-23 -36,-58 -36,-103l0 -236 48 0 -1 243c0,30 8,52 25,67 17,14 38,22 64,22 27,0 50,-7 68,-21 18,-14 27,-36 27,-68l0 -147c0,-11 0,-22 0,-32z"/>
   <polyline class="fil1 str0" points="3184,5250 2959,5162 2900,5251 "/>
   <polyline class="fil1 str0" points="3439,5250 2959,5061 2834,5251 "/>
   <polyline class="fil1 str0" points="3694,5250 2959,4960 2768,5251 "/>
   <polyline class="fil1 str0" points="3809,5194 2959,4859 2738,5196 "/>
   <polyline class="fil1 str0" points="3809,5093 2958,4759 2738,5095 "/>
   <polyline class="fil1 str0" points="3808,4992 2958,4658 2737,4994 "/>
   <polyline class="fil1 str0" points="3808,4892 2958,4557 2737,4893 "/>
   <polyline class="fil1 str0" points="3808,4791 2958,4456 2737,4792 "/>
   <polyline class="fil1 str0" points="3808,4690 2958,4355 2737,4692 "/>
   <polyline class="fil1 str0" points="3808,4589 2958,4255 2737,4591 "/>
   <polyline class="fil1 str0" points="3808,4488 2958,4154 2737,4490 "/>
   <polyline class="fil1 str0" points="3808,4388 2957,4053 2737,4389 "/>
   <polyline class="fil1 str0" points="3808,4287 2957,3952 2736,4289 "/>
   <polyline class="fil1 str0" points="3807,4186 2957,3851 2736,4188 "/>
   <polyline class="fil1 str0" points="3807,4085 2957,3751 2736,4087 "/>
   <polyline class="fil1 str0" points="3807,3984 2957,3650 2736,3986 "/>
   <polyline class="fil1 str0" points="3807,3884 2957,3549 2736,3885 "/>
   <polyline class="fil1 str0" points="3807,3783 2957,3448 2736,3784 "/>
   <polyline class="fil1 str0" points="3807,3682 2957,3347 2736,3684 "/>
   <polyline class="fil1 str0" points="3807,3581 2956,3247 2735,3583 "/>
   <polyline class="fil1 str0" points="3806,3480 2956,3146 2735,3482 "/>
   <polyline class="fil1 str0" points="3806,3380 2956,3045 2735,3381 "/>
   <polyline class="fil1 str0" points="3806,3279 2956,2944 2735,3280 "/>
   <polyline class="fil1 str0" points="3806,3178 2956,2843 2735,3180 "/>
   <polyline class="fil1 str0" points="3806,3081 2956,2746 2735,3082 "/>
   <polyline class="fil1 str0" points="3806,2983 2956,2649 2735,2985 "/>
   <polyline class="fil1 str0" points="3806,2875 2956,2541 2735,2877 "/>
   <polyline class="fil1 str1" points="2252,5252 2182,5216 2157,5252 "/>
   <polyline class="fil1 str1" points="2446,5252 2182,5115 2085,5252 "/>
   <polyline class="fil1 str1" points="2641,5251 2182,5014 2014,5252 "/>
   <polyline class="fil1 str1" points="2728,5196 2182,4913 1947,5253 "/>
   <polyline class="fil1 str1" points="2728,5095 2182,4813 1869,5253 "/>
   <polyline class="fil1 str1" points="2728,4994 2182,4712 1798,5253 "/>
   <polyline class="fil1 str1" points="2727,4893 2181,4611 1733,5253 "/>
   <polyline class="fil1 str1" points="2727,4792 2181,4510 1666,5253 "/>
   <polyline class="fil1 str1" points="2727,4692 2181,4409 1603,5253 "/>
   <polyline class="fil1 str1" points="2727,4591 2181,4309 1540,5253 "/>
   <polyline class="fil1 str1" points="2727,4490 2181,4208 1469,5253 "/>
   <polyline class="fil1 str1" points="2727,4389 2181,4107 1388,5253 "/>
   <polyline class="fil1 str1" points="2727,4289 2181,4006 1310,5254 "/>
   <polyline class="fil1 str1" points="2726,4188 2181,3906 1704,4563 "/>
   <polyline class="fil1 str1" points="2726,4087 2180,3805 1984,4083 "/>
   <polyline class="fil1 str2" points="4053,5249 4005,5224 3988,5249 "/>
   <polyline class="fil1 str2" points="4247,5249 4005,5124 3916,5249 "/>
   <polyline class="fil1 str2" points="4441,5248 4005,5023 3844,5249 "/>
   <polyline class="fil1 str2" points="4551,5204 4005,4922 3814,5192 "/>
   <polyline class="fil1 str2" points="4551,5103 4005,4821 3814,5091 "/>
   <polyline class="fil1 str2" points="4551,5003 4005,4720 3813,4990 "/>
   <polyline class="fil1 str2" points="4551,4902 4005,4620 3813,4889 "/>
   <polyline class="fil1 str2" points="4551,4801 4005,4519 3813,4788 "/>
   <polyline class="fil1 str2" points="4550,4700 4004,4418 3813,4688 "/>
   <polyline class="fil1 str2" points="4550,4599 4004,4317 3813,4587 "/>
   <polyline class="fil1 str2" points="4550,4499 4004,4216 3813,4486 "/>
   <polyline class="fil1 str2" points="4550,4398 4004,4116 3813,4385 "/>
   <polyline class="fil1 str2" points="4550,4297 4004,4015 3812,4284 "/>
   <polyline class="fil1 str2" points="4550,4196 4004,3914 3812,4184 "/>
   <polyline class="fil1 str2" points="4550,4095 4004,3813 3812,4083 "/>
   <polyline class="fil1 str2" points="4549,3999 4004,3717 3812,3987 "/>
   <polyline class="fil1 str2" points="4549,3899 4003,3616 3812,3886 "/>
   <polyline class="fil1 str2" points="4549,3798 4003,3516 3812,3785 "/>
   <polyline class="fil1 str2" points="4549,3679 4003,3397 3812,3666 "/>
   <polyline class="fil1 str2" points="4549,3560 4003,3278 3812,3547 "/>
   <polyline class="fil1 str2" points="4549,3441 4003,3159 3812,3428 "/>
   <polyline class="fil1 str2" points="4549,3322 4003,3040 3812,3310 "/>
   <polyline class="fil1 str2" points="4549,3203 4003,2921 3812,3191 "/>
   <polyline class="fil1 str2" points="4549,3084 4003,2802 3812,3072 "/>
   <polyline class="fil1 str2" points="4549,2966 4003,2683 3812,2953 "/>
   <polyline class="fil1 str2" points="4549,2847 4003,2565 3812,2834 "/>
   <polyline class="fil1 str2" points="4549,2728 4003,2446 3812,2715 "/>
   <polyline class="fil1 str2" points="4549,2609 4003,2327 3812,2596 "/>
   <polyline class="fil1 str2" points="4549,2490 4003,2208 3812,2477 "/>
   <polyline class="fil1 str2" points="4549,2371 4003,2089 3812,2358 "/>
   <polyline class="fil1 str2" points="4549,2252 4003,1970 3812,2240 "/>
   <polyline class="fil1 str2" points="4549,2133 4003,1851 3812,2121 "/>
   <polyline class="fil1 str2" points="4549,2014 4003,1732 3812,2002 "/>
   <polyline class="fil1 str2" points="4549,1896 4003,1613 3812,1883 "/>
   <polyline class="fil1 str2" points="4549,1777 4003,1494 3812,1764 "/>
   <polyline class="fil1 str2" points="4499,1632 4003,1376 3812,1645 "/>
   <polyline class="fil1 str2" points="4405,1465 4003,1257 3812,1526 "/>
   <polyline class="fil1 str2" points="4311,1297 4003,1138 3812,1407 "/>
   <polyline class="fil1 str0" points="6388,5245 5574,4919 5358,5247 "/>
   <polyline class="fil1 str0" points="6157,5245 5574,5016 5422,5247 "/>
   <polyline class="fil1 str0" points="5911,5246 5574,5113 5486,5247 "/>
   <polyline class="fil1 str0" points="5719,5246 5574,5189 5536,5246 "/>
   <polyline class="fil1 str0" points="6615,5228 5574,4818 5353,5154 "/>
   <polyline class="fil1 str0" points="6535,5090 5574,4717 5353,5053 "/>
   <polyline class="fil1 str0" points="6462,4966 5573,4616 5352,4952 "/>
   <polyline class="fil1 str0" points="6386,4835 5573,4515 5352,4852 "/>
   <polyline class="fil1 str0" points="6310,4705 5573,4415 5352,4751 "/>
   <polyline class="fil1 str0" points="6234,4574 5573,4314 5352,4650 "/>
   <polyline class="fil1 str0" points="6158,4443 5573,4213 5352,4549 "/>
   <polyline class="fil1 str0" points="6082,4313 5573,4112 5352,4449 "/>
   <polyline class="fil1 str0" points="6006,4182 5573,4011 5352,4348 "/>
   <polyline class="fil1 str0" points="5930,4051 5572,3911 5352,4247 "/>
   <polyline class="fil1 str0" points="5854,3921 5572,3810 5351,4146 "/>
   <polyline class="fil1 str0" points="5778,3790 5572,3709 5351,4045 "/>
   <polyline class="fil1 str0" points="5703,3660 5572,3608 5351,3945 "/>
   <polyline class="fil1 str0" points="5627,3529 5572,3508 5351,3844 "/>
   <line class="fil1 str0" x1="5563" y1="3420" x2="5351" y2="3743"/>
   <line class="fil1 str0" x1="5532" y1="3366" x2="5351" y2="3642"/>
   <line class="fil1 str0" x1="5501" y1="3313" x2="5351" y2="3541"/>
   <line class="fil1 str0" x1="5470" y1="3259" x2="5350" y2="3440"/>
   <line class="fil1 str0" x1="5438" y1="3206" x2="5350" y2="3340"/>
   <line class="fil1 str0" x1="5407" y1="3152" x2="5350" y2="3239"/>
   <line class="fil1 str0" x1="5376" y1="3098" x2="5350" y2="3138"/>
   <polyline class="fil1 str1" points="5327,5247 4797,4973 4603,5248 "/>
   <polyline class="fil1 str1" points="5161,5247 4797,5059 4664,5248 "/>
   <polyline class="fil1 str1" points="4994,5247 4797,5146 4725,5248 "/>
   <polyline class="fil1 str1" points="4827,5248 4797,5232 4786,5248 "/>
   <polyline class="fil1 str1" points="5343,5154 4797,4872 4576,5185 "/>
   <polyline class="fil1 str1" points="5343,5053 4797,4771 4576,5084 "/>
   <polyline class="fil1 str1" points="5343,4952 4797,4670 4576,4983 "/>
   <polyline class="fil1 str1" points="5342,4852 4797,4569 4576,4882 "/>
   <polyline class="fil1 str1" points="5342,4751 4796,4469 4576,4781 "/>
   <polyline class="fil1 str1" points="5342,4650 4796,4368 4575,4681 "/>
   <polyline class="fil1 str1" points="5342,4549 4796,4267 4575,4580 "/>
   <polyline class="fil1 str1" points="5342,4449 4796,4166 4575,4479 "/>
   <polyline class="fil1 str1" points="5342,4348 4796,4065 4575,4378 "/>
   <polyline class="fil1 str1" points="5342,4247 4796,3965 4575,4277 "/>
   <polyline class="fil1 str1" points="5342,4146 4796,3864 4575,4177 "/>
   <polyline class="fil1 str1" points="5341,4045 4796,3763 4575,4076 "/>
   <polyline class="fil1 str1" points="5341,3945 4795,3662 4574,3975 "/>
   <polyline class="fil1 str1" points="5341,3844 4795,3562 4574,3874 "/>
   <polyline class="fil1 str1" points="5341,3714 4795,3432 4574,3745 "/>
   <polyline class="fil1 str1" points="5341,3584 4795,3302 4574,3615 "/>
   <polyline class="fil1 str1" points="5341,3455 4795,3172 4574,3485 "/>
   <polyline class="fil1 str1" points="5341,3325 4795,3043 4574,3355 "/>
   <polyline class="fil1 str1" points="5341,3195 4795,2913 4574,3226 "/>
   <polyline class="fil1 str1" points="5341,3066 4795,2783 4574,3096 "/>
   <polyline class="fil1 str1" points="5256,2892 4795,2654 4574,2966 "/>
  </g>
 </g>
</svg>